<svg xmlns="http://www.w3.org/2000/svg" width="17" height="14.091" viewBox="0 0 17 14.091">
  <g id="Icon_feather-camera" data-name="Icon feather-camera" transform="translate(-1 -4)">
    <path id="パス_9" data-name="パス 9" d="M17.5,16.136a1.455,1.455,0,0,1-1.455,1.455H2.955A1.455,1.455,0,0,1,1.5,16.136v-8A1.455,1.455,0,0,1,2.955,6.682H5.864L7.318,4.5h4.364l1.455,2.182h2.909A1.455,1.455,0,0,1,17.5,8.136Z" fill="none" stroke="#fff" stroke-linecap="round" stroke-linejoin="round" stroke-width="1"/>
    <path id="パス_10" data-name="パス 10" d="M17.878,16.439A2.939,2.939,0,1,1,14.939,13.5,2.939,2.939,0,0,1,17.878,16.439Z" transform="translate(-5.439 -4.672)" fill="none" stroke="#fff" stroke-linecap="round" stroke-linejoin="round" stroke-width="1"/>
  </g>
</svg>
