<svg xmlns="http://www.w3.org/2000/svg" xmlns:xlink="http://www.w3.org/1999/xlink" width="104" height="128" viewBox="0 0 104 128">
  <defs>
    <clipPath id="clip-path">
      <rect id="長方形_203" data-name="長方形 203" width="104" height="81" transform="translate(0 0)" fill="#fff"/>
    </clipPath>
  </defs>
  <g id="グループ_582" data-name="グループ 582" transform="translate(-44 -472)">
    <g id="長方形_202" data-name="長方形 202" transform="translate(44 472)" fill="none" stroke="rgba(112,112,112,0)" stroke-width="1">
      <rect width="104" height="128" stroke="none"/>
      <rect x="0.5" y="0.5" width="103" height="127" fill="none"/>
    </g>
    <g id="グループ_581" data-name="グループ 581" transform="translate(44 496.081)">
      <g id="グループ_580" data-name="グループ 580" transform="translate(0 -0.081)" clip-path="url(#clip-path)">
        <path id="パス_2607" data-name="パス 2607" d="M20.348,220.7A20.348,20.348,0,1,1,40.7,200.348,20.371,20.371,0,0,1,20.348,220.7m0-36.174a15.826,15.826,0,1,0,15.826,15.826,15.844,15.844,0,0,0-15.826-15.826" transform="translate(0 -139.234)" fill="#fff"/>
        <path id="パス_2608" data-name="パス 2608" d="M300.348,220.7A20.348,20.348,0,1,1,320.7,200.348,20.371,20.371,0,0,1,300.348,220.7m0-36.174a15.826,15.826,0,1,0,15.826,15.826,15.845,15.845,0,0,0-15.826-15.826" transform="translate(-216.696 -139.234)" fill="#fff"/>
        <path id="パス_2609" data-name="パス 2609" d="M157.118,106.685a5.658,5.658,0,0,1-5.652-5.652V87.591L141.2,81.173a8.323,8.323,0,0,1-1.214-13.192l17.291-15.85a7.445,7.445,0,0,1,5.489-1.9,7.355,7.355,0,0,1,5.146,2.691l8.749,10.81h7.588a5.652,5.652,0,1,1,0,11.3H171.814a2.261,2.261,0,0,1-1.6-.662l-7.257-7.257-6.372,7.964,5.732,7.644a2.254,2.254,0,0,1,.453,1.356v16.957a5.658,5.658,0,0,1-5.652,5.652m5.1-51.956a2.765,2.765,0,0,0-1.884.735l-17.291,15.85a3.8,3.8,0,0,0,.555,6.025l11.327,7.081a2.259,2.259,0,0,1,1.063,1.917v14.7a1.13,1.13,0,1,0,2.261,0v-16.2l-6.33-8.441a2.259,2.259,0,0,1,.043-2.769l9.043-11.3a2.261,2.261,0,0,1,1.641-.844,2.313,2.313,0,0,1,1.723.658l8.381,8.381h11.5a1.13,1.13,0,0,0,0-2.261h-8.667a2.263,2.263,0,0,1-1.757-.839L164.4,55.765a2.779,2.779,0,0,0-1.966-1.029c-.072,0-.144-.007-.214-.007" transform="translate(-106.248 -38.788)" fill="#fff"/>
        <path id="パス_2610" data-name="パス 2610" d="M289.043,18.087a9.043,9.043,0,1,1,9.043-9.043,9.053,9.053,0,0,1-9.043,9.043m0-13.565a4.522,4.522,0,1,0,4.522,4.522,4.527,4.527,0,0,0-4.522-4.522" transform="translate(-216.696 0.071)" fill="#fff"/>
      </g>
    </g>
  </g>
</svg>
