<svg xmlns="http://www.w3.org/2000/svg" width="104" height="128" viewBox="0 0 104 128">
  <g id="グループ_579" data-name="グループ 579" transform="translate(-44 -224)">
    <g id="グループ_578" data-name="グループ 578" transform="translate(2 5)">
      <path id="パス_2600" data-name="パス 2600" d="M82.5,305a2.5,2.5,0,0,1-2.5-2.5v-40a2.5,2.5,0,0,1,5,0v40a2.5,2.5,0,0,1-2.5,2.5" transform="translate(-12 33)" fill="#fff"/>
      <path id="パス_2601" data-name="パス 2601" d="M35,192.5H10A2.5,2.5,0,0,1,7.5,190V154.682A10.015,10.015,0,0,1,0,145V122.109A12.123,12.123,0,0,1,12.109,110H15a2.5,2.5,0,0,1,1.387.42l6.113,4.075,6.113-4.075A2.5,2.5,0,0,1,30,110h2.891A12.123,12.123,0,0,1,45,122.109V145a10.015,10.015,0,0,1-7.5,9.682V190a2.5,2.5,0,0,1-2.5,2.5m-22.5-5h20v-35A2.5,2.5,0,0,1,35,150a5.006,5.006,0,0,0,5-5V122.109A7.117,7.117,0,0,0,32.891,115H30.757l-6.87,4.58a2.494,2.494,0,0,1-2.773,0L14.243,115H12.109A7.117,7.117,0,0,0,5,122.109V145a5.006,5.006,0,0,0,5,5,2.5,2.5,0,0,1,2.5,2.5Z" transform="translate(48 145.5)" fill="#fff"/>
      <path id="パス_2602" data-name="パス 2602" d="M60,25A10.011,10.011,0,0,1,50,15V10a10,10,0,0,1,20,0v5A10.011,10.011,0,0,1,60,25M60,5a5.006,5.006,0,0,0-5,5v5a5,5,0,0,0,10,0V10a5.006,5.006,0,0,0-5-5" transform="translate(10.5 228)" fill="#fff"/>
      <path id="パス_2603" data-name="パス 2603" d="M278.23,277.5H273.6a2.5,2.5,0,0,1-2.5-2.5V260a5,5,0,0,0-10,0v15a2.5,2.5,0,0,1-2.5,2.5H253.96a2.5,2.5,0,0,1,0-5H256.1V260a10,10,0,0,1,20,0v12.5h2.135a2.5,2.5,0,0,1,0,5" transform="translate(-147.595 40.5)" fill="#fff"/>
      <path id="パス_2604" data-name="パス 2604" d="M302.5,320a2.5,2.5,0,0,1-2.5-2.5v-35a2.5,2.5,0,0,1,5,0v35a2.5,2.5,0,0,1-2.5,2.5" transform="translate(-184 18)" fill="#fff"/>
      <path id="パス_2605" data-name="パス 2605" d="M302.5,217.5A2.5,2.5,0,0,1,300,215V202.5a2.5,2.5,0,0,1,5,0V215a2.5,2.5,0,0,1-2.5,2.5" transform="translate(-184 78)" fill="#fff"/>
      <path id="パス_2606" data-name="パス 2606" d="M242.5,175a10.011,10.011,0,0,1-10-10h-10a2.5,2.5,0,0,1,0-5H235a2.5,2.5,0,0,1,2.5,2.5V165a5,5,0,0,0,10,0v-2.5A2.5,2.5,0,0,1,250,160h12.5a2.5,2.5,0,0,1,0,5h-10a10.011,10.011,0,0,1-10,10" transform="translate(-124 108)" fill="#fff"/>
    </g>
    <g id="長方形_201" data-name="長方形 201" transform="translate(44 224)" fill="none" stroke="rgba(112,112,112,0)" stroke-width="1">
      <rect width="104" height="128" stroke="none"/>
      <rect x="0.5" y="0.5" width="103" height="127" fill="none"/>
    </g>
  </g>
</svg>
