<svg xmlns="http://www.w3.org/2000/svg" width="48" height="48" viewBox="0 0 48 48">
  <g id="グループ_290" data-name="グループ 290" transform="translate(0.492)">
    <path id="パス_156" data-name="パス 156" d="M24,0A24,24,0,1,1,0,24,24,24,0,0,1,24,0Z" transform="translate(-0.492)" fill="#fff"/>
    <g id="グループ_277" data-name="グループ 277" transform="translate(8.5 8)">
      <g id="長方形_83" data-name="長方形 83" fill="none" stroke="rgba(112,112,112,0)" stroke-width="2">
        <rect width="32" height="32" stroke="none"/>
        <rect x="1" y="1" width="30" height="30" fill="none"/>
      </g>
      <g id="Icon_feather-home" data-name="Icon feather-home" transform="translate(6 5)">
        <path id="パス_132" data-name="パス 132" d="M4.5,10.778,14.5,3l10,7.778V23a2.222,2.222,0,0,1-2.222,2.222H6.722A2.222,2.222,0,0,1,4.5,23Z" transform="translate(-4.5 -3)" fill="none" stroke="#9ac147" stroke-linecap="round" stroke-linejoin="round" stroke-width="3"/>
        <path id="パス_133" data-name="パス 133" d="M13.5,28.267V18h7.279V28.267" transform="translate(-7.139 -6.045)" fill="none" stroke="#9ac147" stroke-linecap="round" stroke-linejoin="round" stroke-width="3"/>
      </g>
    </g>
  </g>
</svg>
