<svg xmlns="http://www.w3.org/2000/svg" xmlns:xlink="http://www.w3.org/1999/xlink" width="248.221" height="85.616" viewBox="0 0 248.221 85.616">
  <defs>
    <clipPath id="clip-path">
      <rect id="長方形_109" data-name="長方形 109" width="248.221" height="85.616" transform="translate(0 0)" fill="#70c8f3"/>
    </clipPath>
  </defs>
  <g id="グループ_333" data-name="グループ 333" transform="translate(0 0)">
    <g id="グループ_332" data-name="グループ 332" clip-path="url(#clip-path)">
      <path id="パス_157" data-name="パス 157" d="M33.766,15.171a2.387,2.387,0,0,1-1.332-.444A82.754,82.754,0,0,1,21.111,4.292a1.59,1.59,0,0,0-1.11-.7c-.333,0-.629.222-1.036.7a78.846,78.846,0,0,1-11.137,11.1,2.988,2.988,0,0,1-1.85.7,1.922,1.922,0,0,1-2-1.887,2.1,2.1,0,0,1,1.11-1.739c3.959-2.442,8.548-7.29,11.249-10.694A4.34,4.34,0,0,1,19.7,0a5.275,5.275,0,0,1,3.664,1.776A63.633,63.633,0,0,0,34.8,11.322a2.14,2.14,0,0,1,1.184,1.814,2.2,2.2,0,0,1-2.22,2.035m-3.478,4c0,4.514-7.808,12.359-10.731,12.359a2.056,2.056,0,0,1-2.146-1.813,1.811,1.811,0,0,1,1.258-1.591c3.441-1.592,7.364-6.364,7.364-7.919,0-.407-.333-.555-.666-.555-2.591,0-13.469.074-14.875.111h-.075A1.522,1.522,0,0,1,8.79,18.168a1.661,1.661,0,0,1,1.627-1.739c1.222-.037,7.216-.037,11.73-.037h4.367c2.59.074,3.774,1.073,3.774,2.775m-15.06-6.179a1.612,1.612,0,1,1,0-3.219h9.917a1.612,1.612,0,1,1,0,3.219Z" fill="#70c8f3"/>
      <path id="パス_158" data-name="パス 158" d="M62.774,30.712c-1.628.074-3.626.074-5.587.074-1.924,0-3.849,0-5.366-.074-3.219-.111-4.81-1.739-4.921-4.477-.074-2.406-.111-6.439-.111-10.472,0-3.589.037-7.215.111-9.695.074-2.368,1.85-3.922,4.625-4.033C52.932,2,55.336,1.961,57.7,1.961c1.962,0,3.886.037,5.144.074a4.489,4.489,0,0,1,4.514,4.329c.074,2.257.112,5.958.112,9.658,0,4.071-.038,8.14-.112,10.1a4.587,4.587,0,0,1-4.588,4.588m1.073-17.021c0-2.331-.037-4.477-.074-5.957-.074-2.554-.629-2.591-6.549-2.591-6.254,0-6.772.037-6.883,2.591-.037,1.517-.074,3.626-.074,5.957Zm-13.58,3.256c0,3.108,0,6.068.074,7.845.074,2.405.481,2.553,6.772,2.553,1.443,0,2.923,0,3.885-.037,2.072-.074,2.7-1.036,2.775-2.628.074-1.85.074-4.773.074-7.733Z" fill="#70c8f3"/>
      <path id="パス_159" data-name="パス 159" d="M87.045,18.427c2.016-.168,3.552,1.007,3.648,3.7a14.294,14.294,0,0,1-.815,5.352,4.653,4.653,0,0,1-5.641,2.88c-1.9-.551-1.128-2.759.336-2.4,1.368.336,2.376.121,3.048-1.3a10.713,10.713,0,0,0,.768-4.152c0-1.464-.5-2.16-1.608-2.064-.36.024-.72.071-1.1.12a35.385,35.385,0,0,1-4.656,9.649c-1.153,1.632-3.649.24-2.089-1.512a23.173,23.173,0,0,0,4.249-7.8l-.288.048a16.306,16.306,0,0,1-2.593.336,1.154,1.154,0,1,1-.071-2.305c.744-.071,1.487-.047,2.352-.119l1.2-.12a25.663,25.663,0,0,0,.744-3.817c.168-1.56,2.616-1.416,2.424.192a31.572,31.572,0,0,1-.7,3.384Zm8.833,5.4A8.61,8.61,0,0,0,92.445,19.7c-1.175-.648-.119-2.449,1.369-1.584a9.949,9.949,0,0,1,4.272,4.56c.6,1.584-1.56,2.64-2.208,1.152" fill="#70c8f3"/>
      <path id="パス_160" data-name="パス 160" d="M111.165,32.4c-1.944.384-2.568-1.992-.528-2.4a11.245,11.245,0,0,0,3.216-1.032c2.641-1.536,3.361-3.192,2.857-4.152s-2.257-1.32-4.8-.168a15.114,15.114,0,0,0-3.216,2.064c-1.416,1.368-2.376.7-2.808-.144a8.264,8.264,0,0,1-.192-4.081c.192-1.752.5-3.6.7-4.824.24-1.536,2.424-1.488,2.208.24-.12,1.008-.384,2.352-.576,3.5a6.3,6.3,0,0,0-.144,2.5c.072.193.192.193.408.073.48-.264,1.608-.889,2.736-1.368,7.249-3.145,12.361,3.336,4.249,8.3a13.009,13.009,0,0,1-4.1,1.488m-.1-15.313c-1.152.288-2.016-1.248-1.008-1.8.12-.072.36-.192.192-.312a8.4,8.4,0,0,1-1.7-1.128c-1.032-1.128.552-2.4,1.752-1.536.432.312,1.248.672,1.944,1.128a2.558,2.558,0,0,1,1.368,1.752,1.562,1.562,0,0,1-1.512,1.68c-.312.048-.648.12-1.032.216" fill="#70c8f3"/>
      <path id="パス_161" data-name="パス 161" d="M127.8,30.643a21.714,21.714,0,0,1-.384-8.425c.312-2.9.84-5.592.96-7.152a1.215,1.215,0,1,1,2.424.048c-.168,1.08-.576,3.168-.888,5.208a26.724,26.724,0,0,0-.456,5.017c.048.432.072.5.312.024.072-.144.24-.576.288-.7.552-1.152,2.376-.336,1.512,1.464a14.684,14.684,0,0,0-.744,1.9c-.192.6-.336,1.128-.432,1.512-.192.672.12,1.344-.48,1.921-.624.575-1.7.48-2.112-.817m7.465.505a2.717,2.717,0,0,1,.36-5.041,6.824,6.824,0,0,1,4.224-.288c0-.384-.048-.744-.072-1.2-.072-.984-.12-2.832-.192-4.729a16.44,16.44,0,0,1-3.936.168,1.175,1.175,0,1,1,.48-2.28,10.077,10.077,0,0,0,3.384-.072c-.024-1.344-.048-2.568-.024-3.312.048-1.56,2.4-1.344,2.3-.048-.048.672-.072,1.68-.072,2.856.408-.12.84-.216,1.225-.336,1.56-.48,2.591,1.7.527,2.208-.576.144-1.152.288-1.728.408.024,1.873.1,3.745.144,4.921.024.6.12,1.392.144,2.16a11.459,11.459,0,0,1,2.712,1.752c1.368,1.248-.336,3.336-1.536,2.064a11.054,11.054,0,0,0-1.488-1.248,4.768,4.768,0,0,1-6.456,2.017M139.629,28a4.334,4.334,0,0,0-3.313-.144.8.8,0,0,0-.144,1.416A2.492,2.492,0,0,0,139.653,28Z" fill="#70c8f3"/>
      <path id="パス_162" data-name="パス 162" d="M152.373,32.3a9.154,9.154,0,0,0-2.953-2.52,1.081,1.081,0,0,1-.648-.96,1.069,1.069,0,0,1,1.129-1.056c.84,0,4.68,2.112,4.68,3.744a1.327,1.327,0,0,1-1.3,1.32,1.092,1.092,0,0,1-.912-.528" fill="#70c8f3"/>
      <path id="パス_163" data-name="パス 163" d="M17.482,66.539c.288,5.148-4.32,5.076-7.271,3.636-4.284-2.088-3.1-4.643-1.188-6.731A23.179,23.179,0,0,1,14.1,59.628c-.036-1.511-.072-3.059-.072-4.5a13.492,13.492,0,0,1-4.319.144c-2.664-.324-2.232-3.924.756-3.312a9,9,0,0,0,3.635-.323c0-1.692-.072-2.844-.144-4.212a1.823,1.823,0,1,1,3.636-.036c-.072.792-.108,1.944-.18,3.023a10.8,10.8,0,0,0,1.439-.827c1.944-1.3,4.14,1.548,1.62,3.059a20.8,20.8,0,0,1-3.383,1.62c-.036,1.116-.036,2.448,0,3.815a22.237,22.237,0,0,1,3.024-1.115A13.807,13.807,0,0,1,28.1,57c5.94,2.052,4.968,6.911,3.132,9.575-2.34,3.383-7.379,4.535-11.555,2.159a1.716,1.716,0,1,1,1.548-3.059c2.808,1.367,5.112,1.4,6.839-.9.864-1.152,1.872-3.708-1.26-4.86a10.045,10.045,0,0,0-5.831-.071,18.225,18.225,0,0,0-3.779,1.367c.072,1.908.216,3.78.288,5.327m-6.048-1.151c-.756.828-.756,1.764.073,2.159,1.547.757,2.591.648,2.627-.756.036-.971.036-2.3,0-3.779a17.673,17.673,0,0,0-2.7,2.376m20.41-11.375a6.724,6.724,0,0,0-4.751-1.476,1.6,1.6,0,1,1-.181-3.168c2.592-.215,6.192.685,7.488,2.052a1.75,1.75,0,0,1,.036,2.556,1.816,1.816,0,0,1-2.592.036" fill="#70c8f3"/>
      <path id="パス_164" data-name="パス 164" d="M52.151,54.193A12.359,12.359,0,0,1,53.3,52.321c.575-.756.4-.72-.288-.5-2.7.864-2.088.864-4.536,1.8-1.152.432-2.16.792-3.239,1.08-3.168.864-4.14-3.276-1.261-3.888.756-.18,2.844-.576,4-.864,1.764-.432,4.932-1.152,8.6-2.195a48.16,48.16,0,0,1,9.791-2.124c2.232-.144,2.843,1.62,2.447,2.771-.215.612-1.007,1.332-3.527,1.188a15.277,15.277,0,0,0-5.327,1.008,10.476,10.476,0,0,0-4.644,4.212c-3.167,5.291-.756,12.85,7.307,12.562,3.78-.144,4.032,4.1.216,4.068-10.87-.037-14.614-10.007-10.69-17.242m11.086,2.375c-1.907-.827-.468-3.059,1.3-2.411a11.738,11.738,0,0,1,3.779,2.267c1.477,1.584-.755,3.888-2.015,2.412a13.814,13.814,0,0,0-3.06-2.268m3.636-3.131c-1.944-.756-.54-3.06,1.224-2.484a11.951,11.951,0,0,1,3.815,2.16C73.424,54.624,71.3,57,70,55.561a12.633,12.633,0,0,0-3.131-2.124" fill="#70c8f3"/>
      <path id="パス_165" data-name="パス 165" d="M90.814,51.745c3.023-.252,5.327,1.512,5.471,5.543a21.434,21.434,0,0,1-1.224,8.027,6.978,6.978,0,0,1-8.459,4.32c-2.843-.828-1.691-4.14.5-3.6,2.052.5,3.564.18,4.572-1.944a16.083,16.083,0,0,0,1.152-6.227c0-2.2-.756-3.24-2.412-3.1-.54.036-1.08.108-1.656.18a53.066,53.066,0,0,1-6.983,14.471c-1.728,2.447-5.471.36-3.132-2.268a34.711,34.711,0,0,0,6.371-11.7l-.432.072a24.4,24.4,0,0,1-3.887.5,1.729,1.729,0,1,1-.108-3.455c1.116-.108,2.232-.072,3.528-.18l1.8-.18a38.317,38.317,0,0,0,1.116-5.723c.252-2.34,3.924-2.124,3.636.288a47.47,47.47,0,0,1-1.044,5.075Zm13.246,8.1a12.922,12.922,0,0,0-5.147-6.191c-1.764-.972-.18-3.672,2.051-2.376,2.88,1.692,5.436,4.247,6.408,6.839.9,2.376-2.34,3.959-3.312,1.728" fill="#70c8f3"/>
      <path id="パス_166" data-name="パス 166" d="M118.751,68.3c-3.24-6.228-1.584-13.067-1.188-17.494.18-2.052.4-3.2.467-4.752a1.747,1.747,0,0,1,3.492.073,47.142,47.142,0,0,1-.576,4.823c-.432,3.023-1.476,6.119-.936,9.682.108.613.324.865.612.109.18-.432.576-1.152.756-1.584a1.434,1.434,0,1,1,2.664,1.044,18.977,18.977,0,0,0-1.8,6.3c-.036.4.216,1.44-.288,2.087a1.9,1.9,0,0,1-3.2-.287m18.213-18.214c.792-.18,1.512-.324,2.124-.5,2.3-.648,3.708,2.483.648,3.131-.936.217-1.872.433-2.844.613,0,1.043.072,2.123.144,3.563.324,7.2-1.548,12.419-7.163,16.378-2.088,1.476-4.355-1.332-2.124-2.772,4.608-2.987,6.048-7.379,5.9-13.534-.035-1.116-.071-2.124-.107-3.1a26.776,26.776,0,0,1-6.048.252c-2.411-.216-2.195-3.707.576-3.275a21.908,21.908,0,0,0,5.435-.18v-.936a22.816,22.816,0,0,0-.4-4.247c-.287-2.664,3.276-2.52,3.708-.54a17.406,17.406,0,0,1,.18,4.283Z" fill="#70c8f3"/>
      <path id="パス_167" data-name="パス 167" d="M152.388,67.943c-.1-2.521.168-4.561.288-7.1.072-1.56.24-3.912.192-5.4-.047-1.775,2.664-1.631,2.617-.047-.048,1.512-.216,3.792-.336,5.4a66.311,66.311,0,0,0-.432,7.057c.144,3.5,4.416,3.264,8.592-.024a1.335,1.335,0,1,1,1.657,2.088c-4.681,3.816-12.362,4.512-12.578-1.968m6.889-8.881c-1.32-.552-.288-2.088.912-1.632a8.7,8.7,0,0,1,2.592,1.536c1.008,1.08-.5,2.664-1.368,1.656a8.741,8.741,0,0,0-2.136-1.56m2.544-2.208c-1.344-.5-.36-2.088.864-1.68a8.36,8.36,0,0,1,2.616,1.464c1.057,1.032-.432,2.664-1.32,1.68a9.011,9.011,0,0,0-2.16-1.464" fill="#70c8f3"/>
      <path id="パス_168" data-name="パス 168" d="M179.557,63.454c.744-.432,1.464-.84,2.232-1.224a.931.931,0,0,1-.7-.7,2.833,2.833,0,0,0-.792-1.128.675.675,0,0,1,.193-1.08,1.23,1.23,0,0,1,1.487.071,3.541,3.541,0,0,1,1.056,1.513.891.891,0,0,1-.071.792c1.728-.672,3.5-.936,4.9-.048a2.85,2.85,0,0,1,.624,4.3,4.977,4.977,0,0,1-6.1,1.368,1.037,1.037,0,0,1-.409-1.536,1.014,1.014,0,0,1,1.513-.264,2.53,2.53,0,0,0,3.24-.672,1.067,1.067,0,0,0-.144-1.584c-1.152-.84-3.72.456-4.848,1.1-.433.24-.841.5-1.273.768.408.744.864,1.56,1.32,2.376a32,32,0,0,1,2.089,4.3c.575,1.8-1.609,2.472-2.065.744a23.466,23.466,0,0,0-1.848-4.225c-.384-.744-.792-1.512-1.176-2.208a12.573,12.573,0,0,1-2.4,1.056,1.037,1.037,0,1,1-.528-1.992,11.63,11.63,0,0,0,1.968-.792l-.192-.384a8.3,8.3,0,0,1-.816-1.969,1,1,0,0,1,1.92-.551c.24.576.384,1.152.672,1.7Z" fill="#70c8f3"/>
      <path id="パス_169" data-name="パス 169" d="M199.044,59.014a1.1,1.1,0,1,1,.7-2.065,6.406,6.406,0,0,0,3.288-.071,15.239,15.239,0,0,0,.48-2.425,1.15,1.15,0,0,1,2.281.216,8.07,8.07,0,0,1-.336,1.464,7.343,7.343,0,0,0,.768-.408c1.08-.768,2.592.72,1.056,1.824a9.152,9.152,0,0,1-2.568,1.1,60.487,60.487,0,0,1-4.3,8.089c-.888,1.44-3.192.5-2.136-1.056a46.8,46.8,0,0,0,3.936-6.553,6.567,6.567,0,0,1-3.168-.119m4.129,13.513c-2.233-1.128-2.5-3.721-.025-4.825a7.859,7.859,0,0,1,4.609-.456v-.84c0-.6-.048-1.2-.071-1.8A7.1,7.1,0,0,1,207.8,63a1.1,1.1,0,0,1,2.16.432,4.793,4.793,0,0,0-.143,1.128c0,.552,0,1.152.023,1.848.024.456.072.96.1,1.489a8.672,8.672,0,0,1,2.928,1.92c1.368,1.512-.575,3.216-1.728,1.824a6.922,6.922,0,0,0-1.368-1.248,4.807,4.807,0,0,1-6.6,2.136m.767-3.145a.73.73,0,0,0,.024,1.393c1.44.72,3.386.023,3.649-1.272.024-.072,0-.168.024-.241a4.819,4.819,0,0,0-3.7.12m5.354-8.856c-1.321.072-1.416-1.92.119-2.064a7.591,7.591,0,0,1,4.416.84c1.633.984.385,2.976-.792,2.232a6.164,6.164,0,0,0-3.743-1.008" fill="#70c8f3"/>
      <path id="パス_170" data-name="パス 170" d="M223.669,69.55c-1.728-1.872-2.52-4.656-2.712-7.681a23.9,23.9,0,0,1-.12-2.664,1.224,1.224,0,1,1,2.448-.024c.048.937-.048.984,0,2.088.1,2.521.552,4.9,1.9,6.193.624.6.936.672,1.464-.048A9.438,9.438,0,0,0,227.437,66a1.179,1.179,0,0,1,2.184.864,10.98,10.98,0,0,1-.936,1.848c-1.536,2.5-3.672,2.281-5.016.84m12.985-4.224a7.572,7.572,0,0,0-2.665-4.657c-1.151-.792.144-2.568,1.585-1.488a9.209,9.209,0,0,1,3.6,5.569,1.292,1.292,0,1,1-2.52.576" fill="#70c8f3"/>
      <path id="パス_171" data-name="パス 171" d="M245.484,73.895a2.736,2.736,0,1,1,2.736-2.737,2.735,2.735,0,0,1-2.736,2.737m0-4.537a1.8,1.8,0,0,0-1.824,1.8,1.824,1.824,0,1,0,3.648,0,1.8,1.8,0,0,0-1.824-1.8" fill="#70c8f3"/>
      <path id="パス_172" data-name="パス 172" d="M138.011,85.616a9.089,9.089,0,0,1-6.163-2.307,6.422,6.422,0,0,0-8.69,0,9.38,9.38,0,0,1-12.322,0,6.414,6.414,0,0,0-8.684,0,9.379,9.379,0,0,1-12.321,0,6.409,6.409,0,0,0-8.68,0,9.372,9.372,0,0,1-12.316,0,6.409,6.409,0,0,0-8.68,0,9.083,9.083,0,0,1-6.16,2.307,9.187,9.187,0,0,1-6.158-2.307,6.412,6.412,0,0,0-8.682,0,9.08,9.08,0,0,1-6.16,2.307,9.187,9.187,0,0,1-6.158-2.307,6.409,6.409,0,0,0-8.68,0A9.19,9.19,0,0,1,12,85.616,9.187,9.187,0,0,1,5.84,83.309,6.221,6.221,0,0,0,1.5,81.616a1.5,1.5,0,0,1,0-3,9.185,9.185,0,0,1,6.158,2.307A6.222,6.222,0,0,0,12,82.616a6.221,6.221,0,0,0,4.34-1.693,9.374,9.374,0,0,1,12.317,0,6.412,6.412,0,0,0,8.682,0A9.08,9.08,0,0,1,43.5,78.616a9.188,9.188,0,0,1,6.159,2.307,6.411,6.411,0,0,0,8.681,0A9.082,9.082,0,0,1,64.5,78.616a9.19,9.19,0,0,1,6.159,2.307,6.407,6.407,0,0,0,8.678,0,9.189,9.189,0,0,1,6.158-2.307,9.083,9.083,0,0,1,6.16,2.307,6.414,6.414,0,0,0,8.684,0,9.378,9.378,0,0,1,12.32,0,6.418,6.418,0,0,0,8.687,0,9.384,9.384,0,0,1,12.325,0,6.234,6.234,0,0,0,4.345,1.693,1.5,1.5,0,0,1,0,3" fill="#70c8f3"/>
    </g>
  </g>
</svg>
