<svg xmlns="http://www.w3.org/2000/svg" width="28.5" height="28.5" viewBox="0 0 28.5 28.5">
  <g id="グループ_311" data-name="グループ 311" transform="translate(-47.5 -308.5)">
    <g id="Icon_feather-settings" data-name="Icon feather-settings" transform="translate(48 309)">
      <path id="パス_139" data-name="パス 139" d="M20.314,16.907A3.407,3.407,0,1,1,16.907,13.5,3.407,3.407,0,0,1,20.314,16.907Z" transform="translate(-3.28 -3.28)" fill="none" stroke="#fff" stroke-linecap="round" stroke-linejoin="round" stroke-width="1"/>
      <path id="パス_140" data-name="パス 140" d="M24.294,18.844A2.044,2.044,0,0,0,24.7,21.1l.074.074a2.479,2.479,0,1,1-3.506,3.506L21.2,24.6A2.061,2.061,0,0,0,17.7,26.066v.211a2.478,2.478,0,1,1-4.955,0v-.111a2.044,2.044,0,0,0-1.338-1.871,2.044,2.044,0,0,0-2.255.409l-.074.074a2.479,2.479,0,1,1-3.506-3.506L5.65,21.2A2.061,2.061,0,0,0,4.188,17.7H3.978a2.478,2.478,0,1,1,0-4.955h.111A2.044,2.044,0,0,0,5.96,11.411a2.044,2.044,0,0,0-.409-2.255l-.074-.074A2.479,2.479,0,1,1,8.983,5.576l.074.074a2.044,2.044,0,0,0,2.255.409h.1a2.044,2.044,0,0,0,1.239-1.871V3.978a2.478,2.478,0,1,1,4.955,0v.111A2.061,2.061,0,0,0,21.1,5.551l.074-.074a2.479,2.479,0,1,1,3.506,3.506l-.074.074a2.044,2.044,0,0,0-.409,2.255v.1a2.044,2.044,0,0,0,1.871,1.239h.211a2.478,2.478,0,1,1,0,4.955h-.111a2.044,2.044,0,0,0-1.871,1.239Z" transform="translate(-1.5 -1.5)" fill="none" stroke="#fff" stroke-linecap="round" stroke-linejoin="round" stroke-width="1"/>
    </g>
    <g id="長方形_105" data-name="長方形 105" transform="translate(48 309)" fill="none" stroke="rgba(112,112,112,0)" stroke-width="1">
      <rect width="28" height="28" stroke="none"/>
      <rect x="0.5" y="0.5" width="27" height="27" fill="none"/>
    </g>
  </g>
</svg>
